<svg width="42" height="42" viewBox="0 0 38 38" fill="none" xmlns="http://www.w3.org/2000/svg">
<path d="M23.4206 17.0604L17.613 13.7164C17.272 13.5201 16.8854 13.4169 16.4919 13.4172C16.0984 13.4175 15.712 13.5213 15.3713 13.7181C15.0306 13.9149 14.7476 14.1978 14.5508 14.5385C14.354 14.8792 14.2502 15.2657 14.25 15.6592V22.344C14.2452 23.1452 14.6727 23.8862 15.3678 24.282C15.7098 24.4815 16.0977 24.5876 16.4935 24.5876C16.8878 24.5876 17.2741 24.4815 17.6145 24.2852L23.4206 20.9412C23.7617 20.7451 24.045 20.4625 24.2421 20.122C24.4391 19.7815 24.5428 19.395 24.5428 19.0016C24.5428 18.6082 24.4391 18.2217 24.2421 17.8812C24.045 17.5406 23.7617 17.2581 23.4206 17.062V17.0604ZM22.629 19.5653L16.8245 22.9108C16.7239 22.9699 16.6094 23.001 16.4928 23.001C16.3761 23.001 16.2616 22.9699 16.161 22.9108C16.0604 22.8539 15.9769 22.7709 15.9192 22.6707C15.8616 22.5704 15.8319 22.4565 15.8333 22.3408V15.6592C15.8322 15.5438 15.862 15.4302 15.9196 15.3303C15.9773 15.2303 16.0606 15.1476 16.161 15.0908C16.2608 15.0301 16.3752 14.998 16.492 14.998C16.6087 14.998 16.7232 15.0301 16.8229 15.0908L22.629 18.4363C22.7291 18.4929 22.8124 18.575 22.8704 18.6743C22.9283 18.7737 22.9589 18.8866 22.9589 19.0016C22.9589 19.1166 22.9283 19.2295 22.8704 19.3288C22.8124 19.4282 22.7291 19.5103 22.629 19.5668V19.5653ZM30.0833 6.33334H7.91663C6.65723 6.3346 5.44978 6.83545 4.55926 7.72597C3.66873 8.6165 3.16788 9.82395 3.16663 11.0833V26.9167C3.16788 28.1761 3.66873 29.3835 4.55926 30.274C5.44978 31.1646 6.65723 31.6654 7.91663 31.6667H30.0833C31.3427 31.6654 32.5501 31.1646 33.4407 30.274C34.3312 29.3835 34.832 28.1761 34.8333 26.9167V11.0833C34.832 9.82395 34.3312 8.6165 33.4407 7.72597C32.5501 6.83545 31.3427 6.3346 30.0833 6.33334V6.33334ZM33.25 26.9167C33.2487 27.7561 32.9147 28.5609 32.3211 29.1545C31.7275 29.7481 30.9228 30.0821 30.0833 30.0833H7.91663C7.07716 30.0821 6.27244 29.7481 5.67884 29.1545C5.08525 28.5609 4.75122 27.7561 4.74996 26.9167V11.0833C4.75122 10.2439 5.08525 9.43915 5.67884 8.84556C6.27244 8.25197 7.07716 7.91793 7.91663 7.91668H30.0833C30.9228 7.91793 31.7275 8.25197 32.3211 8.84556C32.9147 9.43915 33.2487 10.2439 33.25 11.0833V26.9167Z" fill="#465A7B"/>
</svg>
