<svg width="94" height="93" viewBox="0 0 94 93" fill="none" xmlns="http://www.w3.org/2000/svg">
<path d="M77.8006 32.8019C78.3518 30.8883 78.4713 28.8782 78.1506 26.9138C77.8299 24.9495 77.0768 23.0788 75.9447 21.4342C74.8126 19.7896 73.3291 18.4112 71.599 17.3965C69.869 16.3817 67.9348 15.7555 65.9331 15.562C65.1299 13.282 63.6302 11.3054 61.6416 9.90585C59.6529 8.50626 57.2737 7.75288 54.8333 7.75C51.9333 7.75972 49.1408 8.83719 46.9999 10.7725C44.859 8.83719 42.0666 7.75972 39.1666 7.75C34.071 7.75 29.7274 10.9701 28.102 15.5581C26.0968 15.7468 24.1581 16.3696 22.4235 17.3826C20.6889 18.3955 19.2008 19.7737 18.0648 21.4194C16.9289 23.0651 16.1729 24.9379 15.8505 26.905C15.5281 28.8722 15.6471 30.8854 16.1993 32.8019C13.6849 34.1254 11.5795 36.0976 10.1066 38.5093C8.63369 40.921 7.84812 43.6823 7.83325 46.5C7.83325 50.6656 9.50958 54.5832 12.4236 57.474C11.9777 58.9422 11.7508 60.4669 11.7499 62C11.7499 69.5834 17.2803 75.9113 24.6984 77.2443C25.7874 79.6255 27.546 81.6465 29.7641 83.066C31.9823 84.4856 34.5665 85.2437 37.2083 85.25C41.0427 85.25 44.5089 83.6729 46.9999 81.1464C48.2713 82.444 49.7931 83.4758 51.4751 84.1807C53.1571 84.8856 54.9649 85.2492 56.7916 85.25C59.4286 85.2452 62.0087 84.49 64.224 83.0747C66.4393 81.6593 68.1964 79.6435 69.2858 77.2675C71.4711 76.8863 73.5498 76.0509 75.3847 74.8163C77.2197 73.5818 78.7691 71.9762 79.9306 70.1056C81.0921 68.235 81.8394 66.1419 82.1231 63.9645C82.4068 61.7871 82.2204 59.5749 81.5762 57.474C83.0325 56.0328 84.1874 54.3218 84.975 52.4389C85.7627 50.5559 86.1676 48.5378 86.1666 46.5C86.1517 43.6823 85.3661 40.921 83.8932 38.5093C82.4203 36.0976 80.315 34.1254 77.8006 32.8019ZM37.2083 77.5C34.4235 77.5 31.9991 75.547 31.4508 72.8578L30.6204 69.75H27.4166C23.0965 69.75 19.5833 66.2741 19.5833 62C19.5833 60.636 19.9162 59.3573 20.5742 58.1986L22.3602 55.0366L19.2895 53.0604C18.1802 52.3528 17.2676 51.3819 16.6348 50.236C16.002 49.0901 15.6691 47.8058 15.6666 46.5C15.6666 42.7141 18.4983 39.432 22.2544 38.8585L28.8853 37.851L24.7376 32.6352C23.9989 31.6931 23.5706 30.5493 23.5104 29.3584C23.4503 28.1676 23.7612 26.9872 24.4013 25.9769C25.0413 24.9666 25.9795 24.1752 27.089 23.7097C28.1985 23.2441 29.4258 23.127 30.6048 23.374L35.2499 24.0521V19.375C35.2499 18.3473 35.6626 17.3617 36.3971 16.635C37.1316 15.9083 38.1278 15.5 39.1666 15.5C40.2054 15.5 41.2016 15.9083 41.9361 16.635C42.6706 17.3617 43.0833 18.3473 43.0833 19.375V71.6875C43.0833 74.8921 40.4473 77.5 37.2083 77.5ZM74.7103 53.0565L71.6397 55.0327L73.4257 58.1947C74.0837 59.3572 74.4166 60.636 74.4166 62C74.4166 66.2741 70.9033 69.75 66.3874 69.75H63.1836L62.5491 72.8578C62.2753 74.1685 61.5532 75.3459 60.5044 76.1915C59.4557 77.0371 58.1445 77.4992 56.7916 77.5C53.5525 77.5 50.9166 74.8921 50.9166 71.6875V19.375C50.9166 17.236 52.6713 15.5 54.8333 15.5C56.9953 15.5 58.7499 17.236 58.7499 19.5688V24.2459L63.3951 23.374C64.5741 23.127 65.8013 23.2441 66.9108 23.7097C68.0203 24.1752 68.9585 24.9666 69.5986 25.9769C70.2386 26.9872 70.5496 28.1676 70.4894 29.3584C70.4293 30.5493 70.0009 31.6931 69.2623 32.6352L65.1145 37.8549L71.7454 38.8624C73.5803 39.1563 75.25 40.0856 76.4567 41.4845C77.6633 42.8834 78.3284 44.661 78.3333 46.5C78.3333 49.1466 76.9781 51.5956 74.7103 53.0565Z" fill="#EFB215"/>
</svg>
