<svg width="99" height="94" viewBox="0 0 99 94" fill="none" xmlns="http://www.w3.org/2000/svg">
<path d="M91.8253 37.8203H68.5753C68.1757 37.8203 67.8487 38.1508 67.8487 38.5547V42.9609C67.8487 43.3648 68.1757 43.6953 68.5753 43.6953H91.8253C92.2249 43.6953 92.5518 43.3648 92.5518 42.9609V38.5547C92.5518 38.1508 92.2249 37.8203 91.8253 37.8203ZM79.6554 50.3047H68.5753C68.1757 50.3047 67.8487 50.6352 67.8487 51.0391V55.4453C67.8487 55.8492 68.1757 56.1797 68.5753 56.1797H79.6554C80.055 56.1797 80.3819 55.8492 80.3819 55.4453V51.0391C80.3819 50.6352 80.055 50.3047 79.6554 50.3047ZM49.3486 29.6045H45.4161C44.853 29.6045 44.3989 30.0635 44.3989 30.6326V53.3982C44.3989 53.7287 44.5533 54.0316 44.8167 54.2244L58.3398 64.1936C58.7939 64.524 59.4297 64.4322 59.7566 63.9732L62.0907 60.7512V60.742C62.4177 60.283 62.3178 59.6404 61.8637 59.31L50.3567 50.9014V30.6326C50.3658 30.0635 49.9026 29.6045 49.3486 29.6045V29.6045Z" fill="#EEB116"/>
<path d="M79.0923 61.8619H73.8428C73.3343 61.8619 72.8529 62.1281 72.5804 62.5687C71.427 64.4139 70.0829 66.1213 68.5389 67.6818C65.8779 70.3715 62.7809 72.4828 59.3388 73.9516C55.7696 75.4754 51.9824 76.2465 48.0771 76.2465C44.1628 76.2465 40.3756 75.4754 36.8154 73.9516C33.3733 72.4828 30.2763 70.3715 27.6153 67.6818C24.9543 64.9922 22.8654 61.8619 21.4123 58.3828C19.9047 54.7844 19.1418 50.9564 19.1418 47C19.1418 43.0436 19.9047 39.2248 21.4123 35.6172C22.8654 32.1381 24.9543 29.0078 27.6153 26.3182C30.2763 23.6285 33.3733 21.5172 36.8154 20.0484C40.3756 18.5246 44.1718 17.7535 48.0771 17.7535C51.9915 17.7535 55.7787 18.5246 59.3388 20.0484C62.7809 21.5172 65.8779 23.6285 68.5389 26.3182C70.0829 27.8787 71.427 29.5861 72.5804 31.4312C72.8529 31.8719 73.3343 32.1381 73.8428 32.1381H79.0923C79.7189 32.1381 80.1185 31.4771 79.837 30.9172C73.9155 19.0111 61.9091 11.2727 48.504 11.1166C28.8777 10.8687 12.5755 27.1076 12.5391 46.9266C12.5028 66.7822 28.4236 82.8926 48.068 82.8926C61.6457 82.8926 73.8519 75.1266 79.837 63.0828C80.1185 62.5228 79.7098 61.8619 79.0923 61.8619V61.8619Z" fill="#EEB116"/>
</svg>
