<svg width="115" height="94" viewBox="0 0 115 94" fill="none" xmlns="http://www.w3.org/2000/svg">
<path d="M91.0743 11.3975C91.6232 11.9481 91.9314 12.6939 91.9314 13.4714C91.9314 14.2488 91.6232 14.9946 91.0743 15.5452L84.9467 21.6787L73.1967 9.92874L79.3243 3.79524C79.8751 3.24454 80.6222 2.93518 81.4011 2.93518C82.18 2.93518 82.927 3.24454 83.4779 3.79524L91.0743 11.3916V11.3975ZM80.793 25.8265L69.043 14.0765L29.0167 54.1087C28.6933 54.432 28.4499 54.8263 28.3058 55.2602L23.5764 69.4425C23.4906 69.701 23.4785 69.9784 23.5412 70.2434C23.604 70.5085 23.7393 70.7509 23.9319 70.9435C24.1245 71.1361 24.3669 71.2714 24.632 71.3342C24.8971 71.3969 25.1744 71.3848 25.4329 71.299L39.6152 66.5696C40.0485 66.4272 40.4428 66.1858 40.7667 65.8646L80.793 25.8324V25.8265Z" fill="#EFB215"/>
<path fill-rule="evenodd" clip-rule="evenodd" d="M5.875 79.3125C5.875 81.6497 6.80346 83.8912 8.45612 85.5439C10.1088 87.1965 12.3503 88.125 14.6875 88.125H79.3125C81.6497 88.125 83.8912 87.1965 85.5439 85.5439C87.1965 83.8912 88.125 81.6497 88.125 79.3125V44.0625C88.125 43.2834 87.8155 42.5363 87.2646 41.9854C86.7137 41.4345 85.9666 41.125 85.1875 41.125C84.4084 41.125 83.6613 41.4345 83.1104 41.9854C82.5595 42.5363 82.25 43.2834 82.25 44.0625V79.3125C82.25 80.0916 81.9405 80.8387 81.3896 81.3896C80.8387 81.9405 80.0916 82.25 79.3125 82.25H14.6875C13.9084 82.25 13.1613 81.9405 12.6104 81.3896C12.0595 80.8387 11.75 80.0916 11.75 79.3125V14.6875C11.75 13.9084 12.0595 13.1613 12.6104 12.6104C13.1613 12.0595 13.9084 11.75 14.6875 11.75H52.875C53.6541 11.75 54.4012 11.4405 54.9521 10.8896C55.503 10.3387 55.8125 9.59157 55.8125 8.8125C55.8125 8.03343 55.503 7.28626 54.9521 6.73537C54.4012 6.18449 53.6541 5.875 52.875 5.875H14.6875C12.3503 5.875 10.1088 6.80346 8.45612 8.45612C6.80346 10.1088 5.875 12.3503 5.875 14.6875V79.3125Z" fill="#EFB215"/>
</svg>
