<svg width="102" height="103" viewBox="0 0 102 103" fill="none" xmlns="http://www.w3.org/2000/svg">
<path d="M39.5664 98.1081C37.273 90.6289 33.8142 85.0545 29.1876 81.3827C22.2489 75.8762 11.2242 79.2999 7.15224 73.6179C3.08028 67.9359 10.0049 57.4892 12.4341 51.3251C14.8655 45.161 3.12007 42.9823 4.49143 41.2318C5.40411 40.0641 11.3412 36.6989 22.298 31.1315C25.4105 13.3764 36.9079 4.5 56.795 4.5C86.6232 4.5 97.9872 29.7882 97.9872 45.8748C97.9872 61.959 84.2268 79.2859 64.6253 83.0232C62.8725 85.574 65.3999 90.6054 72.2076 98.1105" stroke="#595D81" stroke-width="8" stroke-linecap="round" stroke-linejoin="round"/>
<path d="M40.6522 29.0722C39.1217 35.0022 39.5757 39.1678 42.0166 41.5642C44.4551 43.9629 48.6113 45.5308 54.4852 46.268C53.1512 53.9204 54.7777 57.508 59.3598 57.0353C63.9419 56.5625 66.6963 54.66 67.6207 51.3252C74.7818 53.3377 78.6641 51.6528 79.2656 46.2703C80.1666 38.1966 75.8138 31.7587 74.0282 31.7587C72.245 31.7587 67.6207 31.5411 67.6207 29.0722C67.6207 26.6033 62.2195 25.2108 57.3449 25.2108C52.4702 25.2108 55.4025 21.9228 48.7095 23.2217C44.2468 24.0875 41.5602 26.0369 40.6522 29.0722V29.0722Z" stroke="#595D81" stroke-width="8" stroke-linejoin="round"/>
<path d="M66.3945 54.8143C64.0145 56.291 60.75 58.7459 59.3739 60.6648C55.9362 65.4623 53.149 68.3805 52.5405 71.4485" stroke="#595D81" stroke-width="8" stroke-linecap="round"/>
</svg>
