<svg width="105" height="105" viewBox="0 0 105 105" fill="none" xmlns="http://www.w3.org/2000/svg">
<path d="M91.875 35C90.9913 35 70.6563 35.1269 52.5 43.785C34.3438 35.1269 14.0088 35 13.125 35C11.9647 35 10.8519 35.4609 10.0314 36.2814C9.21094 37.1019 8.75 38.2147 8.75 39.375V82.6131C8.75001 83.2002 8.86815 83.7812 9.09739 84.3216C9.32664 84.862 9.6623 85.3508 10.0844 85.7587C10.9375 86.5812 12.1844 87.0931 13.2738 86.9837L13.8294 86.9794C16.8175 86.9794 32.6244 87.4081 50.6494 95.8388C50.7194 95.8738 50.7981 95.8606 50.8681 95.8869C51.3888 96.1012 51.9356 96.25 52.5 96.25C53.0644 96.25 53.6113 96.1012 54.1363 95.8869C54.2063 95.8606 54.285 95.8738 54.355 95.8388C72.38 87.4038 88.1869 86.9794 91.175 86.9794L91.7306 86.9837C92.7719 87.0931 94.0625 86.5812 94.92 85.7587C95.7688 84.9319 96.25 83.7944 96.25 82.6131V39.375C96.25 38.2147 95.7891 37.1019 94.9686 36.2814C94.1481 35.4609 93.0353 35 91.875 35ZM17.5 43.9644C23.9969 44.45 36.6669 46.0644 48.125 51.3669V85.2381C35 80.0975 23.6688 78.7019 17.5 78.3431V43.9644ZM87.5 78.3431C81.3313 78.7019 70 80.0975 56.875 85.2381V51.3669C68.3331 46.0644 81.0031 44.45 87.5 43.9644V78.3431Z" fill="#595D81"/>
<path d="M52.5 35C59.7487 35 65.625 29.1237 65.625 21.875C65.625 14.6263 59.7487 8.75 52.5 8.75C45.2513 8.75 39.375 14.6263 39.375 21.875C39.375 29.1237 45.2513 35 52.5 35Z" fill="#595D81"/>
</svg>
