<svg width="105" height="98" viewBox="0 0 105 98" fill="none" xmlns="http://www.w3.org/2000/svg">
<path d="M63.8991 0.816467C60.9262 0.816467 58.075 1.99745 55.9729 4.0996C53.8707 6.20175 52.6898 9.05289 52.6898 12.0258V26.9715C52.6901 29.2893 53.4089 31.5499 54.7472 33.4423C56.0855 35.3346 57.9774 36.7656 60.1626 37.5382V45.6537C60.1629 46.3637 60.3654 47.0589 60.7465 47.6579C61.1276 48.257 61.6715 48.735 62.3145 49.0361C62.9574 49.3372 63.6729 49.4489 64.377 49.3581C65.0812 49.2672 65.7449 48.9777 66.2904 48.5233L78.6954 38.1808H93.7906C96.7635 38.1808 99.6146 36.9999 101.717 34.8977C103.819 32.7956 105 29.9444 105 26.9715V12.0258C105 9.05289 103.819 6.20175 101.717 4.0996C99.6146 1.99745 96.7635 0.816467 93.7906 0.816467H63.8991ZM60.1626 12.0258C60.1626 11.0348 60.5563 10.0844 61.257 9.38372C61.9577 8.683 62.9081 8.28934 63.8991 8.28934H93.7906C94.7815 8.28934 95.7319 8.683 96.4326 9.38372C97.1334 10.0844 97.527 11.0348 97.527 12.0258V26.9715C97.527 27.9625 97.1334 28.9129 96.4326 29.6136C95.7319 30.3143 94.7815 30.708 93.7906 30.708H77.3503C76.4763 30.7084 75.6301 31.0151 74.9589 31.5748L67.6355 37.6727V34.4444C67.6355 33.4534 67.2419 32.5031 66.5411 31.8023C65.8404 31.1016 64.89 30.708 63.8991 30.708C62.9081 30.708 61.9577 30.3143 61.257 29.6136C60.5563 28.9129 60.1626 27.9625 60.1626 26.9715V12.0258ZM15.3254 38.1808C15.3254 34.217 16.9 30.4155 19.7029 27.6126C22.5058 24.8097 26.3073 23.2351 30.2711 23.2351C34.235 23.2351 38.0365 24.8097 40.8394 27.6126C43.6423 30.4155 45.2169 34.217 45.2169 38.1808C45.2169 42.1447 43.6423 45.9462 40.8394 48.7491C38.0365 51.552 34.235 53.1266 30.2711 53.1266C26.3073 53.1266 22.5058 51.552 19.7029 48.7491C16.9 45.9462 15.3254 42.1447 15.3254 38.1808ZM30.2711 30.708C28.2892 30.708 26.3885 31.4953 24.987 32.8967C23.5856 34.2982 22.7983 36.1989 22.7983 38.1808C22.7983 40.1628 23.5856 42.0635 24.987 43.465C26.3885 44.8664 28.2892 45.6537 30.2711 45.6537C32.2531 45.6537 34.1538 44.8664 35.5553 43.465C36.9567 42.0635 37.744 40.1628 37.744 38.1808C37.744 36.1989 36.9567 34.2982 35.5553 32.8967C34.1538 31.4953 32.2531 30.708 30.2711 30.708ZM11.589 60.5995H48.9533C51.9262 60.5995 54.7774 61.7804 56.8795 63.8826C58.9817 65.9848 60.1626 68.8359 60.1626 71.8088C60.1626 80.1485 56.7326 86.8293 51.1055 91.3503C45.5681 95.7967 38.1401 97.9638 30.2711 97.9638C22.4022 97.9638 14.9742 95.7967 9.43676 91.3503C3.81716 86.8293 0.379639 80.1485 0.379639 71.8088C0.379639 68.8359 1.56062 65.9848 3.66277 63.8826C5.76492 61.7804 8.61606 60.5995 11.589 60.5995V60.5995ZM48.9533 68.0723H11.589C10.598 68.0723 9.64761 68.466 8.94689 69.1667C8.24617 69.8674 7.85251 70.8178 7.85251 71.8088C7.85251 77.9141 10.2812 82.4427 14.1148 85.5215C18.0455 88.6751 23.695 90.491 30.2711 90.491C36.8473 90.491 42.4968 88.6751 46.4275 85.5215C50.2611 82.4427 52.6898 77.9141 52.6898 71.8088C52.6898 70.8178 52.2961 69.8674 51.5954 69.1667C50.8947 68.466 49.9443 68.0723 48.9533 68.0723Z" fill="#595D81"/>
</svg>
