<svg width="318" height="330" viewBox="0 0 318 330" fill="none" xmlns="http://www.w3.org/2000/svg">
<g clip-path="url(#clip0_767_987)">
<path d="M265.898 154.717L258.632 118.289L178.019 130.673L182.097 155.4L265.898 154.717Z" fill="#50668C"/>
<path d="M161.426 30.9093L163.487 43.312L231.383 32.8952C228.46 31.5977 225.297 30.9274 222.099 30.9276L161.426 30.9093Z" fill="#50668C"/>
<path d="M252.323 87.0384L247.397 62.6411L168.711 74.7271L172.789 99.2584L252.323 87.0384Z" fill="#50668C"/>
<path d="M164.913 215.22L162.999 213.058L187.175 207.118L178.867 157.166L65.0252 156.222C56.4498 156.224 48.1174 159.069 41.3332 164.311C34.549 169.553 29.6963 176.895 27.5353 185.188L14.8497 233.842L77.1195 234.062L74.2057 241.018H177.391C175.398 230.876 171.295 222.445 164.913 215.22Z" fill="#50668C"/>
<path d="M248.854 241.012H283.406L277.23 210.401C265.778 218.56 256.12 228.978 248.854 241.012Z" fill="#50668C"/>
<path d="M266.398 156.447L180.622 157.16L188.864 206.771L272.537 186.321L266.398 156.447Z" fill="#FFF28D"/>
<path d="M156.97 270.179H184.761C177.934 261.548 171.411 255.517 164.895 251.795C153.831 245.478 142.169 244.485 129.24 248.828L59.3316 267.493L71.877 237.54L13.9657 237.333L1.1643 286.408C-0.595097 292.935 -0.386451 299.836 1.76407 306.245C3.91459 312.654 7.9112 318.286 13.2525 322.434C18.5246 326.67 24.9312 329.255 31.6681 329.865C38.405 330.475 45.1722 329.083 51.1204 325.864L82.6546 309.142C110.3 294.327 156.129 270.618 156.592 270.381L156.97 270.179Z" fill="#FFF28D"/>
<path d="M244.953 207.837C248.599 203.977 252.485 200.351 256.59 196.981C261.338 193.326 266.428 190.281 271.744 188.538L190.851 208.093L196.338 240.988H222.501C223.605 238.6 224.818 236.243 226.061 233.891C226.811 232.508 227.634 231.18 228.433 229.828C233.273 222.021 238.802 214.661 244.953 207.837Z" fill="#50668C"/>
<path d="M122.607 22.7282C121.461 22.1617 120.297 21.6439 119.102 21.1809C120.297 21.6439 121.465 22.1596 122.607 22.7282Z" fill="#EFEFEF"/>
<path d="M87.4826 21.3209C86.5804 21.6742 85.6965 22.0702 84.8248 22.4905C85.6985 22.0804 86.5845 21.6905 87.4826 21.3209Z" fill="#EFEFEF"/>
<path d="M114.433 19.7067C113.482 19.4569 112.525 19.2072 111.549 19.0244C112.525 19.2072 113.482 19.4569 114.433 19.7067Z" fill="#EFEFEF"/>
<path d="M109.727 18.7625C109.013 18.6589 108.312 18.531 107.587 18.4579C108.294 18.531 108.995 18.6589 109.727 18.7625Z" fill="#EFEFEF"/>
<path d="M132.166 29.161C129.288 26.6092 126.084 24.4502 122.638 22.7404C126.083 24.4523 129.286 26.6112 132.166 29.161Z" fill="#EFEFEF"/>
<path d="M118.657 21.0285C117.59 20.6326 116.505 20.2549 115.402 19.9381C116.505 20.2549 117.59 20.6326 118.657 21.0285Z" fill="#EFEFEF"/>
<path d="M80.6734 24.7628C79.6981 25.372 78.741 26.0116 77.8145 26.6878C78.741 26.0116 79.6981 25.372 80.6734 24.7628Z" fill="#EFEFEF"/>
<path d="M83.9713 22.917C83.0204 23.3962 82.0917 23.9099 81.1855 24.4582C82.0917 23.9099 83.0204 23.3962 83.9713 22.917Z" fill="#EFEFEF"/>
<path d="M317.707 254.633L275.036 43.3303C272.575 31.1106 265.959 20.1185 256.309 12.2201C246.66 4.32177 234.572 0.00404595 222.099 0L64.5314 0C51.6751 0 39.3454 5.10362 30.2546 14.1881C21.1638 23.2726 16.0566 35.5938 16.0566 48.4413V209.445L22.7012 183.97C24.2647 177.982 27.0842 172.394 30.9727 167.578C34.8613 162.761 39.73 158.826 45.2561 156.033V48.4413C45.261 43.3304 47.2944 38.4301 50.9103 34.8156C54.5262 31.201 59.4292 29.1675 64.5436 29.161H69.713C74.0775 24.6122 79.3176 20.9926 85.1182 18.52C90.9187 16.0473 97.1598 14.7726 103.466 14.7726C109.772 14.7726 116.013 16.0473 121.814 18.52C127.615 20.9926 132.855 24.6122 137.219 29.161H222.099C227.829 29.1757 233.379 31.1645 237.813 34.792C242.247 38.4196 245.294 43.464 246.44 49.0748L285.545 242.791H144.083C152.004 242.736 159.794 244.808 166.638 248.791C174.264 253.147 181.811 260.366 189.723 270.91L190.504 271.952H303.528C305.671 271.953 307.788 271.478 309.725 270.562C311.661 269.645 313.37 268.31 314.727 266.652C316.084 264.995 317.055 263.057 317.571 260.978C318.086 258.899 318.133 256.732 317.707 254.633Z" fill="#EFEFEF"/>
<path d="M74.736 29.161C75.6585 28.3488 76.6136 27.5792 77.6011 26.8523C76.6136 27.5833 75.6585 28.3529 74.736 29.161Z" fill="#EFEFEF"/>
<path d="M91.195 20.0479C90.366 20.2915 89.5613 20.5839 88.7567 20.8763C89.5552 20.5778 90.366 20.2976 91.195 20.0479Z" fill="#EFEFEF"/>
<path d="M99.205 18.4823C98.632 18.5371 98.0773 18.6407 97.5043 18.7199C98.0712 18.6407 98.632 18.5371 99.205 18.4823Z" fill="#EFEFEF"/>
<path d="M95.0964 19.0853C94.3649 19.2315 93.6517 19.4204 92.9324 19.597C93.6639 19.4204 94.3832 19.2315 95.0964 19.0853Z" fill="#EFEFEF"/>
<path d="M150.502 64.0909V63.4817C150.502 62.9457 150.466 62.4096 150.435 61.8796C150.397 61.4102 150.178 60.9737 149.826 60.6613C144.576 55.8631 138.321 52.297 131.516 50.2235C124.711 48.15 117.529 47.6214 110.493 48.6763C103.458 49.7312 96.7468 52.343 90.8506 56.3209C84.9543 60.2989 80.0216 65.5425 76.4124 71.669C76.1624 72.1195 76.0815 72.6444 76.1844 73.1492C76.2872 73.6539 76.5669 74.1055 76.9732 74.4225C80.6308 77.3465 83.8434 79.3689 86.556 80.4228C87.0304 80.5855 87.544 80.5942 88.0236 80.4476C88.5032 80.301 88.924 80.0066 89.2261 79.6065C96.1152 71.1661 105.597 65.231 116.203 62.7201C126.809 60.2092 137.947 61.2627 147.893 65.7174C148.174 65.8485 148.484 65.9061 148.793 65.8847C149.102 65.8634 149.401 65.7639 149.661 65.5956C149.922 65.4415 150.137 65.2211 150.285 64.9568C150.433 64.6924 150.508 64.3937 150.502 64.0909Z" fill="#50668C"/>
<path d="M103.289 141.236C114.71 141.236 125.663 136.703 133.739 128.632C141.814 120.562 146.351 109.617 146.351 98.2044V67.3072C146.351 67.1793 146.351 67.0514 146.351 66.9174C136.829 62.8477 126.239 61.9876 116.185 64.4672C106.13 66.9467 97.1564 72.631 90.622 80.6603C90.2287 81.1504 89.7318 81.5476 89.167 81.8236C88.6021 82.0995 87.9833 82.2472 87.3546 82.2563C86.8771 82.2562 86.4037 82.1674 85.9586 81.9944C83.0448 80.8613 79.7591 78.8084 75.9187 75.726C75.2102 75.1522 74.7214 74.3519 74.5349 73.4599C69.3998 70.5526 64.6729 66.9782 60.4777 62.8298C60.3236 64.3173 60.2463 65.8118 60.246 67.3072V98.2044C60.246 109.614 64.7804 120.557 72.852 128.626C80.9237 136.696 91.8719 141.231 103.289 141.236Z" fill="#FFF28D"/>
<path d="M60.4594 62.8298C63.6052 65.9499 67.0589 68.744 70.7676 71.1694C67.06 68.7424 63.6065 65.9485 60.4594 62.8298Z" fill="#122D58"/>
<path d="M61.6908 61.5933C65.5805 65.429 69.939 68.759 74.6629 71.5045C74.721 71.2349 74.811 70.9731 74.9311 70.7248C79.3351 63.3193 85.5854 57.1817 93.0718 52.9109C100.558 48.6402 109.025 46.3824 117.645 46.3579C127.943 46.3677 137.979 49.5992 146.345 55.599C144.838 44.8757 139.368 35.1049 131.011 28.2114C122.655 21.3179 112.018 17.8014 101.196 18.3547C90.3745 18.9081 80.1524 23.4911 72.5436 31.2009C64.9348 38.9108 60.4909 49.1885 60.0875 60.0094L61.6908 61.5933Z" fill="#122D58"/>
</g>
<defs>
<clipPath id="clip0_767_987">
<rect width="318" height="330" fill="white"/>
</clipPath>
</defs>
</svg>
