<svg width="313" height="126" viewBox="0 0 313 126" fill="none" xmlns="http://www.w3.org/2000/svg">
<path d="M214.339 59.0713L211.581 45.2256L180.985 49.9326L182.535 59.3306L214.339 59.0713Z" fill="#50668C"/>
<path d="M243.47 4.27643L256.139 59.9673C259.959 74.4544 260.84 77.043 264.324 80.171C265.326 81.0905 266.418 81.9065 267.584 82.6067C271.979 85.1698 277.18 85.8737 288.704 85.8737H308.968L313 103.593H290.499C272.097 103.875 264.902 102.435 255.727 96.7187C254.669 96.0635 253.649 95.3493 252.671 94.5793C243.186 87.1124 239.639 79.8214 234.98 59.9673L222.313 4.27643H243.47Z" fill="#EFEFEF"/>
<path d="M174.69 12.0143L175.472 16.726L201.237 12.7622C200.128 12.2677 198.928 12.0129 197.714 12.0143H174.69Z" fill="#50668C"/>
<path d="M209.186 33.3478L207.315 24.0749L177.454 28.6685L179.002 37.9901L209.186 33.3478Z" fill="#50668C"/>
<path d="M176.013 82.0672L175.287 81.243L184.46 78.9901L181.307 60.0044L138.116 59.6432C134.861 59.6437 131.698 60.7251 129.122 62.7179C126.547 64.7106 124.705 67.5021 123.886 70.6549L119.06 89.1406L142.694 89.224L141.586 91.8727H180.742C179.99 88.0269 178.44 84.8132 176.013 82.0672Z" fill="#50668C"/>
<path d="M207.868 91.8704H220.983L218.637 80.2358C214.291 83.3376 210.626 87.2971 207.868 91.8704V91.8704Z" fill="#50668C"/>
<path d="M214.526 59.7288L181.975 59.9997L185.101 78.8559L216.856 71.0833L214.526 59.7288Z" fill="#FFF28D"/>
<path d="M110.981 16.3718C110.969 8.00645 102.391 0 93.8424 0C84.556 0 77.7335 7.0178 74.8046 16.2606L55.5471 76.9226L36.2918 16.2606C33.3583 7.0178 26.5381 0 17.2541 0C8.70569 0 0.127242 8.00645 0.115675 16.3718L0 99.3096H20.1274L20.2292 24.7163C20.2292 24.7163 41.4116 88.578 42.1242 89.8352C44.1253 95.3295 49.4024 99.305 55.5424 99.305C61.6825 99.305 66.9966 95.3087 68.9839 89.7889C69.6779 88.5409 90.8742 24.7116 90.8742 24.7116L90.976 99.305H111.092L110.981 16.3718Z" fill="#EFEFEF"/>
<path d="M172.996 102.956H183.544C180.953 99.6754 178.479 97.3832 176.004 95.9685C171.807 93.5652 167.382 93.1901 162.472 94.8387L135.941 101.935L140.705 90.5506L118.715 90.4719L113.868 109.122C113.216 111.605 113.302 114.224 114.115 116.658C114.928 119.093 116.432 121.237 118.444 122.829C120.457 124.421 122.889 125.391 125.443 125.62C127.998 125.85 130.564 125.329 132.827 124.121L144.793 117.765C155.287 112.132 172.679 103.121 172.853 103.033L172.996 102.956Z" fill="#FFF28D"/>
<path d="M206.387 79.2611C207.771 77.7939 209.246 76.4158 210.804 75.1351C212.606 73.7459 214.538 72.5882 216.555 71.9261L185.857 79.3583L187.939 91.8611H197.848C198.269 90.9535 198.729 90.0552 199.201 89.1638C199.486 88.6382 199.796 88.1311 200.101 87.6194C201.943 84.6512 204.047 81.8539 206.387 79.2611V79.2611Z" fill="#50668C"/>
<path d="M159.955 8.90481C159.523 8.68871 159.08 8.49268 158.625 8.31671C159.078 8.49268 159.522 8.68871 159.955 8.90481Z" fill="#EFEFEF"/>
<path d="M146.625 8.37689C146.282 8.51118 145.949 8.66168 145.618 8.81912C145.949 8.66168 146.282 8.51118 146.625 8.37689Z" fill="#EFEFEF"/>
<path d="M156.855 7.75642C156.492 7.66149 156.131 7.56656 155.761 7.4971C156.131 7.56656 156.492 7.66149 156.855 7.75642Z" fill="#EFEFEF"/>
<path d="M155.062 7.40907C154.791 7.36971 154.523 7.31877 154.248 7.2933C154.523 7.3072 154.791 7.35813 155.062 7.40907Z" fill="#EFEFEF"/>
<path d="M163.583 11.3452C162.492 10.374 161.275 9.55327 159.967 8.90482C161.275 9.55468 162.491 10.3753 163.583 11.3452V11.3452Z" fill="#EFEFEF"/>
<path d="M158.456 8.25881C158.051 8.10599 157.642 7.96476 157.221 7.84436C157.642 7.96476 158.051 8.10368 158.456 8.25881Z" fill="#EFEFEF"/>
<path d="M144.043 9.67807C143.67 9.9096 143.308 10.1535 142.958 10.4097C143.31 10.1504 143.668 9.9096 144.043 9.67807Z" fill="#EFEFEF"/>
<path d="M145.288 8.97656C144.924 9.15947 144.573 9.35396 144.228 9.56003C144.578 9.36091 144.931 9.16642 145.288 8.97656Z" fill="#EFEFEF"/>
<path d="M234.001 97.0382L217.807 16.726C216.871 12.0828 214.358 7.90677 210.696 4.90655C207.034 1.90633 202.447 0.266807 197.714 0.266235H137.917C133.038 0.266235 128.358 2.20602 124.908 5.65887C121.458 9.11171 119.52 13.7948 119.52 18.6778V79.8792L122.042 70.1849C122.635 67.9089 123.705 65.7852 125.181 63.9546C126.656 62.1239 128.504 60.6283 130.602 59.5667V18.6778C130.603 16.7355 131.374 14.8728 132.745 13.4983C134.116 12.1237 135.976 11.3494 137.917 11.3451H139.876C141.533 9.61617 143.522 8.2404 145.723 7.30055C147.925 6.36071 150.294 5.87621 152.687 5.87621C155.081 5.87621 157.45 6.36071 159.651 7.30055C161.853 8.2404 163.842 9.61617 165.498 11.3451H197.714C199.889 11.3506 201.996 12.1064 203.679 13.4852C205.362 14.8639 206.519 16.7812 206.954 18.914L221.793 92.5418H168.106C171.112 92.5214 174.068 93.309 176.666 94.8224C179.557 96.4779 182.424 99.2216 185.425 103.229L185.721 103.625H228.62C229.433 103.626 230.237 103.445 230.972 103.096C231.707 102.747 232.356 102.239 232.871 101.609C233.386 100.978 233.755 100.241 233.95 99.4508C234.145 98.6603 234.163 97.8362 234.001 97.0382Z" fill="#EFEFEF"/>
<path d="M141.79 11.3451C142.137 11.0372 142.502 10.7455 142.875 10.4676C142.5 10.7439 142.138 11.0364 141.79 11.3451Z" fill="#EFEFEF"/>
<path d="M148.036 7.88605C147.721 7.97866 147.414 8.0898 147.111 8.19862C147.414 8.08748 147.721 7.97866 148.036 7.88605Z" fill="#EFEFEF"/>
<path d="M151.071 7.29102C150.854 7.31185 150.641 7.35121 150.426 7.38131C150.646 7.35121 150.859 7.31185 151.071 7.29102Z" fill="#EFEFEF"/>
<path d="M149.521 7.5202C149.244 7.57346 148.973 7.64755 148.7 7.71469C148.973 7.6406 149.244 7.57577 149.521 7.5202Z" fill="#EFEFEF"/>
<path d="M170.542 24.6259V24.3944C170.542 24.1883 170.542 23.9869 170.516 23.7854C170.5 23.6075 170.417 23.4421 170.285 23.3224C168.294 21.5006 165.922 20.1463 163.341 19.3582C160.761 18.57 158.037 18.3679 155.369 18.7665C152.701 19.1651 150.155 20.1544 147.917 21.6623C145.679 23.1702 143.806 25.1587 142.433 27.483C142.338 27.6546 142.307 27.8545 142.346 28.0467C142.385 28.239 142.491 28.411 142.646 28.5319C144.034 29.6432 145.253 30.4119 146.282 30.8125C146.462 30.8744 146.657 30.8777 146.839 30.8219C147.021 30.7662 147.181 30.6543 147.296 30.5022C149.911 27.294 153.509 25.0381 157.535 24.0838C161.56 23.1294 165.788 23.5299 169.563 25.2233C169.67 25.2714 169.787 25.2924 169.904 25.2843C170.021 25.2762 170.135 25.2394 170.234 25.177C170.328 25.1186 170.405 25.0375 170.459 24.9411C170.513 24.8447 170.541 24.7363 170.542 24.6259V24.6259Z" fill="#50668C"/>
<path d="M152.624 53.9474C156.958 53.9474 161.115 52.2244 164.18 49.1572C167.246 46.09 168.968 41.9299 168.969 37.5919V25.8485C168.969 25.7975 168.969 25.7489 168.969 25.7003C165.355 24.1536 161.336 23.8266 157.52 24.7685C153.705 25.7105 150.299 27.8703 147.819 30.9214C147.67 31.1074 147.481 31.2582 147.267 31.363C147.053 31.4679 146.819 31.5242 146.581 31.528C146.4 31.5278 146.22 31.4949 146.051 31.4308C144.945 30.9978 143.698 30.2198 142.241 29.0483C141.971 28.8303 141.785 28.5262 141.713 28.187C139.765 27.0808 137.971 25.7224 136.378 24.1467C136.323 24.7047 136.29 25.2743 136.29 25.8485V37.5919C136.29 41.928 138.011 46.0867 141.074 49.1537C144.137 52.2207 148.291 53.945 152.624 53.9474V53.9474Z" fill="#FFF28D"/>
<path d="M136.369 24.1467C137.564 25.3332 138.874 26.3966 140.281 27.321C138.875 26.3988 137.564 25.3377 136.369 24.1536V24.1467Z" fill="#122D58"/>
<path d="M136.836 23.6744C138.313 25.1317 139.967 26.3973 141.76 27.4414C141.782 27.3394 141.817 27.2406 141.864 27.1474C143.534 24.3324 145.906 21.9993 148.747 20.376C151.588 18.7528 154.801 17.8948 158.072 17.886C161.98 17.8884 165.79 19.1149 168.966 21.3937C168.397 17.3153 166.322 13.5982 163.15 10.9754C159.978 8.35254 155.939 7.01439 151.83 7.2248C147.721 7.43521 143.839 9.17891 140.951 12.112C138.063 15.0452 136.378 18.9548 136.228 23.0701L136.836 23.6744Z" fill="#122D58"/>
</svg>
